<svg width="557" height="784" viewBox="0 0 557 784" fill="none" xmlns="http://www.w3.org/2000/svg">
<g filter="url(#filter0_d)">
<rect x="2" y="2" width="511" height="743" rx="18" fill="#272B53" fill-opacity="0.12" stroke="#A5167E" stroke-width="4"/>
<g filter="url(#filter1_d)">
<mask id="path-2-inside-1" fill="white">
<path d="M449.49 298.011C447.33 279.031 438.78 260.921 438.78 260.921L439.43 254.521C439.43 254.521 439.57 251.321 439.36 246.521C439.383 243.524 439.776 240.541 440.53 237.641C442.28 232.091 438.34 225.271 437.9 224.641C437.46 224.011 438.12 211.841 434.18 205.871C430.24 199.901 404 188.801 404 188.801C404 188.801 402.59 185.851 400.6 182.401L400.78 182.051C399.152 179.097 397.134 176.376 394.78 173.961C393.17 172.241 391.62 171.261 390.37 171.741C389.862 170.081 389.474 168.387 389.21 166.671C389.47 166.741 389.74 166.811 390 166.861C391.083 167.112 392.206 167.139 393.3 166.941C395.74 166.391 397.36 164.201 398.72 162.141C405.5 151.841 411.34 140.541 412.53 128.351C412.85 125.863 412.731 123.338 412.18 120.891C411.617 118.988 410.832 117.159 409.84 115.441C408.087 111.916 405.867 108.643 403.24 105.711C398.57 100.791 392.13 97.7809 385.51 96.0009C378.052 93.9953 370.283 93.4152 362.61 94.2909C360.61 94.5209 358.61 94.8509 356.61 94.9809C354.073 95.0926 351.532 95.0492 349 94.8509L335.91 94.0909L335.85 93.8909L333.67 93.7609C332.81 95.4709 333.67 97.5009 334.74 99.1009C335.81 100.701 337.04 102.371 336.95 104.261C336.86 106.151 335.49 107.671 334.42 109.261C333.35 110.851 332.54 112.931 333.61 114.491C333.76 114.707 333.939 114.902 334.14 115.071C335.27 116.241 337.24 116.371 338.95 116.351H339.25C334.944 122.023 332.615 128.949 332.62 136.071C332.649 142.156 334.352 148.117 337.543 153.299C340.734 158.481 345.289 162.685 350.71 165.451C350.9 166.101 351.09 166.771 351.27 167.451C353.252 174.475 353.963 181.797 353.37 189.071L353.14 189.571L353 189.041C353 189.041 337.58 199.501 333 202.271C328.42 205.041 323.82 214.431 323.6 216.991C323.38 219.551 316.16 258.161 316.16 258.161C314.693 262.05 313.483 266.032 312.54 270.081L303.33 278.171C303.33 278.171 284.33 279.881 278.83 278.601L278.99 279.661C274.14 278.554 269.2 277.884 264.23 277.661C261.516 277.312 258.757 277.681 256.23 278.731L256.04 278.821L255.89 278.891C252.995 279.287 250.168 280.081 247.49 281.251C247.17 281.381 246.88 281.511 246.6 281.641L246.66 280.331L226.1 279.271L215.6 277.141C215.6 277.141 211.88 274.141 209.69 274.581C207.5 275.021 202.91 272.021 202.91 272.021C201.863 271.2 200.73 270.496 199.53 269.921C199.18 267.501 198.96 266.031 198.96 266.031C198.96 266.031 190.79 233.611 184.67 214.551C180.57 201.821 174.67 195.551 171.19 192.821C169.64 190.121 168.62 188.381 168.62 188.381C167.95 186.041 164.27 180.771 163.33 180.641C163.18 180.401 163.07 180.281 163.01 180.281C162.809 180.259 162.606 180.29 162.42 180.371C160.7 171.811 159.7 161.081 162.33 151.731C165.93 148.772 168.832 145.054 170.827 140.843C172.822 136.631 173.861 132.031 173.87 127.371C173.87 127.231 173.87 127.091 173.87 126.951C173.87 126.811 173.87 126.661 173.87 126.521C173.868 119.089 171.236 111.898 166.44 106.221L166.1 105.841C166.191 105.776 166.278 105.706 166.36 105.631C167.111 105.021 167.684 104.22 168.017 103.312C168.349 102.403 168.43 101.421 168.25 100.471C167.8 98.5509 166.3 97.0409 165.53 95.2209C165.068 93.8198 164.697 92.3901 164.42 90.9409C163.831 88.8825 162.75 86.9983 161.27 85.4509L161.42 85.8509C157.5 81.4409 150.76 79.2509 144.69 80.2309C140.18 80.9509 135.98 83.0509 131.45 83.7009C128.2 84.1609 124.89 83.8609 121.62 84.1909C118.586 84.5028 115.633 85.3563 112.9 86.7109C112.186 87.0145 111.553 87.4802 111.05 88.0709C110.585 88.8623 110.273 89.7341 110.13 90.6409C109.02 94.6909 105.5 97.5809 102.95 100.961C100.037 104.822 98.351 109.47 98.11 114.301C98.0104 115.529 98.1289 116.764 98.46 117.951C98.68 118.661 99.02 119.331 99.18 120.051C99.68 122.251 98.53 124.441 97.97 126.621C97.2646 129.402 97.5146 132.339 98.68 134.961C102.63 143.801 115.6 146.751 118.3 156.031C120.366 156.98 122.548 157.653 124.79 158.031C124.97 158.951 125.13 159.881 125.26 160.821C125.199 160.847 125.142 160.88 125.09 160.921C121.59 164.331 120.72 170.921 120.72 170.921L120.3 171.261C118.87 172.441 113.98 176.401 109.56 179.451C104.31 183.081 95.56 195.241 89.44 198.871C83.32 202.501 78.28 224.871 79.6 233.001C80.92 241.131 86.38 263.931 84.19 272.251C82 280.571 87.47 318.541 87.47 318.541C91.1406 319.24 94.7319 320.305 98.19 321.721L98.08 323.381L97.75 328.381C97.75 328.381 87.84 364.221 91.63 391.811C95.42 419.401 89.88 422.241 89.88 422.241C89.88 422.241 91.04 434.471 88.13 438.741C85.22 443.011 84.63 452.391 84.63 452.391C84.63 452.391 84.34 473.441 84.92 479.391C85.5 485.341 85.79 496.181 83.75 498.741C81.71 501.301 77.92 518.071 78.21 523.191C78.5 528.311 70.92 539.981 75 555.051C79.08 570.121 63 570.411 63 570.411C63 570.411 65.05 593.411 69.42 599.991L70.06 600.931C69.95 601.311 69.84 601.711 69.72 602.141C68.07 608.141 65.81 617.611 67.38 619.901C69.71 623.321 70.88 622.741 70.88 622.741L71.75 638.101C71.75 638.101 89.25 652.891 102.67 652.331C116.09 651.771 113.46 638.101 113.46 638.101L102.03 608.461L101.64 607.461L114.34 583.461C114.34 583.461 117.84 572.941 118.71 569.241C119.58 565.541 124.33 552.431 124.33 552.431C124.33 552.431 136.33 523.991 136.58 520.571C136.83 517.151 137.75 498.681 140.08 494.971C142.41 491.261 148.83 469.971 148.83 469.971L148.99 470.111C150.079 471.181 150.857 472.527 151.241 474.004C151.625 475.482 151.6 477.036 151.17 478.501C149.7 483.901 150.58 494.991 150.58 494.991C150.58 494.991 150 504.381 148.83 509.221C147.66 514.061 147.38 553.591 149.42 562.971C151.05 570.481 151 584.541 150.92 589.861C149.55 595.511 148.35 602.531 150.58 603.361C154.38 604.791 173.63 604.501 173.63 604.501C173.63 604.501 181.79 601.651 192.88 611.611C203.97 621.571 238.08 608.771 238.08 608.771C238.08 608.771 248.58 605.921 227.87 597.681C213.42 591.931 204.09 588.101 197.99 584.001C198.13 583.731 198.28 583.461 198.41 583.171C198.41 583.171 189.95 575.171 196.95 560.991C203.95 546.811 203.66 534.821 203.66 534.821L204.83 487.031L201.33 423.591L198.62 357.011L199.1 356.851C199.56 369.091 201.95 398.231 214.46 392.581C230.21 385.471 216.79 366.981 216.79 366.981L209.72 353.201L211.83 352.481L203.92 326.921C203.161 321.932 203.06 316.866 203.62 311.851C203.777 308.917 203.716 305.976 203.44 303.051C213.8 301.241 223.72 299.321 225.5 299.761C227.6 300.271 239.35 300.371 243.97 300.391C242.46 301.571 241.25 302.741 241.25 302.741L260.06 315.401C260.06 315.401 266.44 311.911 267.77 308.211C269.079 307.88 270.287 307.234 271.29 306.331C271.49 310.701 272.65 315.431 276.69 315.541C277.7 315.562 278.703 315.364 279.63 314.961L310.39 308.871L307.75 325.361L309.59 328.631C308.66 342.541 307.59 357.311 306.65 370.301L306.22 373.141L306.44 373.191C304.98 393.191 303.81 408.341 303.81 408.341C305.533 405.058 308.206 402.371 311.48 400.631L311.68 430.311C311.68 430.311 313.22 477.241 313.22 483.641C313.22 490.041 313.43 504.331 313.43 504.331C313.43 504.331 316.72 521.821 318.68 527.581C320.64 533.341 322.18 559.581 322.18 559.581C322.18 559.581 326.78 566.831 324.81 569.581C322.84 572.331 332.47 578.321 332.47 578.321C332.47 578.321 326.34 586.641 325.9 592.191C325.85 592.831 326.48 593.511 327.62 594.191C327.26 594.481 326.89 594.771 326.48 595.051C323.64 596.951 319.48 598.271 313.22 597.731C296.15 596.231 284.12 612.021 294.62 615.221C305.12 618.421 336.62 619.061 336.62 619.061C336.62 619.061 346.16 613.111 353.62 615.791C353.51 622.051 353.82 627.791 353.87 628.551L353.78 628.621C349.32 632.621 340.78 639.501 332.44 642.311C320.44 646.361 317.78 662.791 333.31 664.921C348.84 667.051 371.59 662.361 371.59 662.361C371.59 662.361 383.4 653.621 392.37 651.701C401.34 649.781 409 645.511 407.47 640.391C406.47 637.121 403.9 628.551 402.16 622.791C402.06 622.444 401.96 622.111 401.86 621.791C402.13 621.191 402.4 620.571 402.65 619.931C402.65 619.931 398.06 596.041 401.78 590.071C405.5 584.101 403.53 524.361 403.53 524.361C403.53 524.361 397.18 509.221 400.47 500.051C403.76 490.881 395.22 477.861 395.22 477.861C395.22 477.861 396.15 451.771 398.65 437.231C398.763 436.611 398.873 436.011 398.98 435.431C403.166 434.189 407.245 432.613 411.18 430.721C411.18 430.721 413.37 397.861 414.68 390.401C414.81 389.701 414.99 388.571 415.21 387.101L416.21 381.831L417.39 375.831L421.39 355.381L428.61 346.041L447.21 327.041C447.21 327.041 451.68 317.001 449.49 298.011ZM162.65 180.681L162.51 180.781C162.489 180.709 162.472 180.635 162.46 180.561C162.518 180.609 162.582 180.649 162.65 180.681V180.681ZM346.42 203.971L345.7 205.541L348.33 202.921L344.76 206.921L345.96 204.401L346.42 203.971ZM328.66 240.671C327.97 242.501 327.23 244.481 326.46 246.541L327.87 242.331L328.66 240.671Z"/>
</mask>
<path d="M449.49 298.011C447.33 279.031 438.78 260.921 438.78 260.921L439.43 254.521C439.43 254.521 439.57 251.321 439.36 246.521C439.383 243.524 439.776 240.541 440.53 237.641C442.28 232.091 438.34 225.271 437.9 224.641C437.46 224.011 438.12 211.841 434.18 205.871C430.24 199.901 404 188.801 404 188.801C404 188.801 402.59 185.851 400.6 182.401L400.78 182.051C399.152 179.097 397.134 176.376 394.78 173.961C393.17 172.241 391.62 171.261 390.37 171.741C389.862 170.081 389.474 168.387 389.21 166.671C389.47 166.741 389.74 166.811 390 166.861C391.083 167.112 392.206 167.139 393.3 166.941C395.74 166.391 397.36 164.201 398.72 162.141C405.5 151.841 411.34 140.541 412.53 128.351C412.85 125.863 412.731 123.338 412.18 120.891C411.617 118.988 410.832 117.159 409.84 115.441C408.087 111.916 405.867 108.643 403.24 105.711C398.57 100.791 392.13 97.7809 385.51 96.0009C378.052 93.9953 370.283 93.4152 362.61 94.2909C360.61 94.5209 358.61 94.8509 356.61 94.9809C354.073 95.0926 351.532 95.0492 349 94.8509L335.91 94.0909L335.85 93.8909L333.67 93.7609C332.81 95.4709 333.67 97.5009 334.74 99.1009C335.81 100.701 337.04 102.371 336.95 104.261C336.86 106.151 335.49 107.671 334.42 109.261C333.35 110.851 332.54 112.931 333.61 114.491C333.76 114.707 333.939 114.902 334.14 115.071C335.27 116.241 337.24 116.371 338.95 116.351H339.25C334.944 122.023 332.615 128.949 332.62 136.071C332.649 142.156 334.352 148.117 337.543 153.299C340.734 158.481 345.289 162.685 350.71 165.451C350.9 166.101 351.09 166.771 351.27 167.451C353.252 174.475 353.963 181.797 353.37 189.071L353.14 189.571L353 189.041C353 189.041 337.58 199.501 333 202.271C328.42 205.041 323.82 214.431 323.6 216.991C323.38 219.551 316.16 258.161 316.16 258.161C314.693 262.05 313.483 266.032 312.54 270.081L303.33 278.171C303.33 278.171 284.33 279.881 278.83 278.601L278.99 279.661C274.14 278.554 269.2 277.884 264.23 277.661C261.516 277.312 258.757 277.681 256.23 278.731L256.04 278.821L255.89 278.891C252.995 279.287 250.168 280.081 247.49 281.251C247.17 281.381 246.88 281.511 246.6 281.641L246.66 280.331L226.1 279.271L215.6 277.141C215.6 277.141 211.88 274.141 209.69 274.581C207.5 275.021 202.91 272.021 202.91 272.021C201.863 271.2 200.73 270.496 199.53 269.921C199.18 267.501 198.96 266.031 198.96 266.031C198.96 266.031 190.79 233.611 184.67 214.551C180.57 201.821 174.67 195.551 171.19 192.821C169.64 190.121 168.62 188.381 168.62 188.381C167.95 186.041 164.27 180.771 163.33 180.641C163.18 180.401 163.07 180.281 163.01 180.281C162.809 180.259 162.606 180.29 162.42 180.371C160.7 171.811 159.7 161.081 162.33 151.731C165.93 148.772 168.832 145.054 170.827 140.843C172.822 136.631 173.861 132.031 173.87 127.371C173.87 127.231 173.87 127.091 173.87 126.951C173.87 126.811 173.87 126.661 173.87 126.521C173.868 119.089 171.236 111.898 166.44 106.221L166.1 105.841C166.191 105.776 166.278 105.706 166.36 105.631C167.111 105.021 167.684 104.22 168.017 103.312C168.349 102.403 168.43 101.421 168.25 100.471C167.8 98.5509 166.3 97.0409 165.53 95.2209C165.068 93.8198 164.697 92.3901 164.42 90.9409C163.831 88.8825 162.75 86.9983 161.27 85.4509L161.42 85.8509C157.5 81.4409 150.76 79.2509 144.69 80.2309C140.18 80.9509 135.98 83.0509 131.45 83.7009C128.2 84.1609 124.89 83.8609 121.62 84.1909C118.586 84.5028 115.633 85.3563 112.9 86.7109C112.186 87.0145 111.553 87.4802 111.05 88.0709C110.585 88.8623 110.273 89.7341 110.13 90.6409C109.02 94.6909 105.5 97.5809 102.95 100.961C100.037 104.822 98.351 109.47 98.11 114.301C98.0104 115.529 98.1289 116.764 98.46 117.951C98.68 118.661 99.02 119.331 99.18 120.051C99.68 122.251 98.53 124.441 97.97 126.621C97.2646 129.402 97.5146 132.339 98.68 134.961C102.63 143.801 115.6 146.751 118.3 156.031C120.366 156.98 122.548 157.653 124.79 158.031C124.97 158.951 125.13 159.881 125.26 160.821C125.199 160.847 125.142 160.88 125.09 160.921C121.59 164.331 120.72 170.921 120.72 170.921L120.3 171.261C118.87 172.441 113.98 176.401 109.56 179.451C104.31 183.081 95.56 195.241 89.44 198.871C83.32 202.501 78.28 224.871 79.6 233.001C80.92 241.131 86.38 263.931 84.19 272.251C82 280.571 87.47 318.541 87.47 318.541C91.1406 319.24 94.7319 320.305 98.19 321.721L98.08 323.381L97.75 328.381C97.75 328.381 87.84 364.221 91.63 391.811C95.42 419.401 89.88 422.241 89.88 422.241C89.88 422.241 91.04 434.471 88.13 438.741C85.22 443.011 84.63 452.391 84.63 452.391C84.63 452.391 84.34 473.441 84.92 479.391C85.5 485.341 85.79 496.181 83.75 498.741C81.71 501.301 77.92 518.071 78.21 523.191C78.5 528.311 70.92 539.981 75 555.051C79.08 570.121 63 570.411 63 570.411C63 570.411 65.05 593.411 69.42 599.991L70.06 600.931C69.95 601.311 69.84 601.711 69.72 602.141C68.07 608.141 65.81 617.611 67.38 619.901C69.71 623.321 70.88 622.741 70.88 622.741L71.75 638.101C71.75 638.101 89.25 652.891 102.67 652.331C116.09 651.771 113.46 638.101 113.46 638.101L102.03 608.461L101.64 607.461L114.34 583.461C114.34 583.461 117.84 572.941 118.71 569.241C119.58 565.541 124.33 552.431 124.33 552.431C124.33 552.431 136.33 523.991 136.58 520.571C136.83 517.151 137.75 498.681 140.08 494.971C142.41 491.261 148.83 469.971 148.83 469.971L148.99 470.111C150.079 471.181 150.857 472.527 151.241 474.004C151.625 475.482 151.6 477.036 151.17 478.501C149.7 483.901 150.58 494.991 150.58 494.991C150.58 494.991 150 504.381 148.83 509.221C147.66 514.061 147.38 553.591 149.42 562.971C151.05 570.481 151 584.541 150.92 589.861C149.55 595.511 148.35 602.531 150.58 603.361C154.38 604.791 173.63 604.501 173.63 604.501C173.63 604.501 181.79 601.651 192.88 611.611C203.97 621.571 238.08 608.771 238.08 608.771C238.08 608.771 248.58 605.921 227.87 597.681C213.42 591.931 204.09 588.101 197.99 584.001C198.13 583.731 198.28 583.461 198.41 583.171C198.41 583.171 189.95 575.171 196.95 560.991C203.95 546.811 203.66 534.821 203.66 534.821L204.83 487.031L201.33 423.591L198.62 357.011L199.1 356.851C199.56 369.091 201.95 398.231 214.46 392.581C230.21 385.471 216.79 366.981 216.79 366.981L209.72 353.201L211.83 352.481L203.92 326.921C203.161 321.932 203.06 316.866 203.62 311.851C203.777 308.917 203.716 305.976 203.44 303.051C213.8 301.241 223.72 299.321 225.5 299.761C227.6 300.271 239.35 300.371 243.97 300.391C242.46 301.571 241.25 302.741 241.25 302.741L260.06 315.401C260.06 315.401 266.44 311.911 267.77 308.211C269.079 307.88 270.287 307.234 271.29 306.331C271.49 310.701 272.65 315.431 276.69 315.541C277.7 315.562 278.703 315.364 279.63 314.961L310.39 308.871L307.75 325.361L309.59 328.631C308.66 342.541 307.59 357.311 306.65 370.301L306.22 373.141L306.44 373.191C304.98 393.191 303.81 408.341 303.81 408.341C305.533 405.058 308.206 402.371 311.48 400.631L311.68 430.311C311.68 430.311 313.22 477.241 313.22 483.641C313.22 490.041 313.43 504.331 313.43 504.331C313.43 504.331 316.72 521.821 318.68 527.581C320.64 533.341 322.18 559.581 322.18 559.581C322.18 559.581 326.78 566.831 324.81 569.581C322.84 572.331 332.47 578.321 332.47 578.321C332.47 578.321 326.34 586.641 325.9 592.191C325.85 592.831 326.48 593.511 327.62 594.191C327.26 594.481 326.89 594.771 326.48 595.051C323.64 596.951 319.48 598.271 313.22 597.731C296.15 596.231 284.12 612.021 294.62 615.221C305.12 618.421 336.62 619.061 336.62 619.061C336.62 619.061 346.16 613.111 353.62 615.791C353.51 622.051 353.82 627.791 353.87 628.551L353.78 628.621C349.32 632.621 340.78 639.501 332.44 642.311C320.44 646.361 317.78 662.791 333.31 664.921C348.84 667.051 371.59 662.361 371.59 662.361C371.59 662.361 383.4 653.621 392.37 651.701C401.34 649.781 409 645.511 407.47 640.391C406.47 637.121 403.9 628.551 402.16 622.791C402.06 622.444 401.96 622.111 401.86 621.791C402.13 621.191 402.4 620.571 402.65 619.931C402.65 619.931 398.06 596.041 401.78 590.071C405.5 584.101 403.53 524.361 403.53 524.361C403.53 524.361 397.18 509.221 400.47 500.051C403.76 490.881 395.22 477.861 395.22 477.861C395.22 477.861 396.15 451.771 398.65 437.231C398.763 436.611 398.873 436.011 398.98 435.431C403.166 434.189 407.245 432.613 411.18 430.721C411.18 430.721 413.37 397.861 414.68 390.401C414.81 389.701 414.99 388.571 415.21 387.101L416.21 381.831L417.39 375.831L421.39 355.381L428.61 346.041L447.21 327.041C447.21 327.041 451.68 317.001 449.49 298.011ZM162.65 180.681L162.51 180.781C162.489 180.709 162.472 180.635 162.46 180.561C162.518 180.609 162.582 180.649 162.65 180.681V180.681ZM346.42 203.971L345.7 205.541L348.33 202.921L344.76 206.921L345.96 204.401L346.42 203.971ZM328.66 240.671C327.97 242.501 327.23 244.481 326.46 246.541L327.87 242.331L328.66 240.671Z" stroke="url(#paint0_linear)" stroke-width="8" mask="url(#path-2-inside-1)"/>
</g>
</g>
<defs>
<filter id="filter0_d" x="0" y="0" width="557" height="784" filterUnits="userSpaceOnUse" color-interpolation-filters="sRGB">
<feFlood flood-opacity="0" result="BackgroundImageFix"/>
<feColorMatrix in="SourceAlpha" type="matrix" values="0 0 0 0 0 0 0 0 0 0 0 0 0 0 0 0 0 0 127 0"/>
<feOffset dx="38" dy="33"/>
<feGaussianBlur stdDeviation="2"/>
<feColorMatrix type="matrix" values="0 0 0 0 0.647059 0 0 0 0 0.0862745 0 0 0 0 0.494118 0 0 0 0.12 0"/>
<feBlend mode="normal" in2="BackgroundImageFix" result="effect1_dropShadow"/>
<feBlend mode="normal" in="SourceGraphic" in2="effect1_dropShadow" result="shape"/>
</filter>
<filter id="filter1_d" x="63" y="80" width="415.094" height="617.476" filterUnits="userSpaceOnUse" color-interpolation-filters="sRGB">
<feFlood flood-opacity="0" result="BackgroundImageFix"/>
<feColorMatrix in="SourceAlpha" type="matrix" values="0 0 0 0 0 0 0 0 0 0 0 0 0 0 0 0 0 0 127 0"/>
<feOffset dx="24" dy="28"/>
<feGaussianBlur stdDeviation="2"/>
<feColorMatrix type="matrix" values="0 0 0 0 0.152941 0 0 0 0 0.168627 0 0 0 0 0.32549 0 0 0 0.2 0"/>
<feBlend mode="normal" in2="BackgroundImageFix" result="effect1_dropShadow"/>
<feBlend mode="normal" in="SourceGraphic" in2="effect1_dropShadow" result="shape"/>
</filter>
<linearGradient id="paint0_linear" x1="256.547" y1="80" x2="256.547" y2="665.476" gradientUnits="userSpaceOnUse">
<stop stop-color="#A5167E"/>
<stop offset="1" stop-color="#A5167E" stop-opacity="0.5"/>
</linearGradient>
</defs>
</svg>
