<svg width="494" height="494" viewBox="0 0 494 494" fill="none" xmlns="http://www.w3.org/2000/svg">
<rect width="494" height="494" rx="90" fill="#A5167E"/>
<path d="M337.021 179.649C337.021 180.273 336.996 180.904 336.946 181.524L347.397 182.208C347.466 181.361 347.501 180.502 347.501 179.649V172.451H337.021V179.649Z" fill="white"/>
<path d="M337.021 146.425V163.037H347.501V146.425C347.499 140.129 345.624 133.949 342.07 128.522C338.516 123.096 333.413 118.622 327.288 115.563L308.128 106L303.039 114.23L322.199 123.793C326.69 126.036 330.433 129.317 333.039 133.297C335.645 137.276 337.02 141.808 337.021 146.425V146.425Z" fill="white"/>
<path d="M231.182 194.051L242.709 199.804V290.134C242.709 290.947 242.943 291.746 243.389 292.454C243.835 293.161 244.477 293.753 245.253 294.171L271.451 308.293C272.265 308.732 273.197 308.964 274.146 308.964C275.096 308.964 276.028 308.732 276.842 308.293L303.04 294.171C303.816 293.753 304.458 293.161 304.904 292.454C305.35 291.746 305.584 290.947 305.584 290.134V276.013C305.584 275.394 305.448 274.782 305.185 274.211C304.922 273.64 304.536 273.121 304.049 272.684L297.275 266.598L304.049 260.512C304.536 260.075 304.922 259.556 305.185 258.985C305.449 258.414 305.584 257.801 305.584 257.183C305.584 256.565 305.449 255.953 305.185 255.382C304.922 254.811 304.536 254.292 304.049 253.855L297.275 247.769L304.049 241.683C304.536 241.246 304.922 240.727 305.185 240.155C305.449 239.584 305.584 238.972 305.584 238.354C305.584 237.736 305.449 237.124 305.185 236.552C304.922 235.981 304.536 235.462 304.049 235.025L297.275 228.939L304.049 222.853C304.536 222.416 304.922 221.897 305.185 221.326C305.448 220.755 305.584 220.143 305.584 219.525V199.803L317.111 194.051C319.969 192.623 322.35 190.535 324.008 188.003C325.667 185.471 326.541 182.587 326.542 179.649V146.425C326.541 143.487 325.667 140.603 324.009 138.071C322.35 135.539 319.969 133.45 317.111 132.023L283.054 115.022C280.332 113.653 277.265 112.934 274.146 112.934C271.027 112.934 267.96 113.653 265.239 115.022L231.182 132.021C228.323 133.449 225.942 135.537 224.284 138.07C222.625 140.602 221.751 143.487 221.75 146.425V179.649C221.751 182.587 222.626 185.471 224.284 188.003C225.942 190.535 228.324 192.623 231.182 194.051V194.051ZM295.105 217.575L286.16 225.611C285.674 226.048 285.288 226.567 285.024 227.138C284.761 227.709 284.625 228.321 284.625 228.939C284.625 229.558 284.761 230.17 285.024 230.741C285.288 231.312 285.674 231.831 286.16 232.268L292.935 238.354L286.16 244.44C285.674 244.877 285.288 245.396 285.024 245.967C284.761 246.538 284.625 247.15 284.625 247.769C284.625 248.387 284.761 248.999 285.024 249.57C285.288 250.141 285.674 250.66 286.16 251.097L292.935 257.183L286.16 263.269C285.674 263.706 285.288 264.225 285.024 264.796C284.761 265.368 284.625 265.98 284.625 266.598C284.625 267.216 284.761 267.828 285.024 268.399C285.288 268.97 285.674 269.489 286.16 269.927L295.105 277.962V287.47L274.146 298.767L253.188 287.47V205.033L263.667 210.263V261.891H274.146V213.138C277.265 213.135 280.331 212.416 283.054 211.05L295.105 205.034V217.575ZM232.23 146.425C232.23 145.166 232.605 143.93 233.316 142.845C234.026 141.759 235.047 140.864 236.272 140.252L270.329 123.254C271.495 122.667 272.809 122.359 274.146 122.359C275.483 122.359 276.797 122.667 277.963 123.254L312.02 140.252C313.245 140.864 314.266 141.759 314.977 142.844C315.688 143.93 316.063 145.166 316.063 146.425V179.649C316.063 180.908 315.688 182.144 314.977 183.229C314.266 184.315 313.246 185.21 312.021 185.821L277.963 202.82C276.797 203.406 275.483 203.715 274.147 203.715C272.81 203.715 271.496 203.406 270.33 202.82L236.273 185.821C235.048 185.21 234.027 184.315 233.316 183.23C232.605 182.144 232.23 180.908 232.23 179.649V146.425Z" fill="white"/>
<path d="M274.146 163.037C277.255 163.037 280.294 162.209 282.879 160.657C285.464 159.105 287.479 156.9 288.669 154.319C289.858 151.739 290.17 148.899 289.563 146.16C288.957 143.42 287.459 140.904 285.261 138.929C283.063 136.954 280.262 135.609 277.213 135.064C274.164 134.519 271.003 134.799 268.131 135.868C265.259 136.937 262.804 138.747 261.077 141.069C259.349 143.391 258.427 146.122 258.427 148.915C258.432 152.659 260.09 156.248 263.037 158.896C265.984 161.543 269.979 163.032 274.146 163.037V163.037ZM274.146 144.208C275.183 144.208 276.196 144.484 277.057 145.001C277.919 145.518 278.59 146.253 278.987 147.113C279.384 147.974 279.487 148.92 279.285 149.833C279.083 150.746 278.584 151.585 277.851 152.243C277.118 152.902 276.185 153.35 275.168 153.532C274.152 153.713 273.099 153.62 272.141 153.264C271.184 152.908 270.365 152.304 269.79 151.53C269.214 150.756 268.907 149.846 268.907 148.915C268.908 147.667 269.461 146.47 270.443 145.588C271.425 144.705 272.757 144.209 274.146 144.208Z" fill="white"/>
<path d="M258.427 172.451H289.865V181.866H258.427V172.451Z" fill="white"/>
<path d="M263.667 271.305H274.146V280.72H263.667V271.305Z" fill="white"/>
<path d="M367.1 333.219C366.173 331.068 364.772 329.108 362.981 327.456C361.19 325.804 359.046 324.494 356.678 323.604C354.353 322.718 351.853 322.264 349.328 322.268C346.802 322.272 344.304 322.734 341.982 323.626L308.107 336.548C308.37 334.254 308.094 331.936 307.297 329.744C306.5 327.551 305.2 325.534 303.48 323.821C301.761 322.109 299.661 320.74 297.315 319.802C294.97 318.864 292.432 318.379 289.865 318.378H249.222C245.111 318.374 241.058 317.514 237.379 315.866C220.374 308.251 201.636 304.277 182.635 304.256H169.354C169.354 303.008 168.802 301.811 167.82 300.928C166.837 300.045 165.504 299.549 164.115 299.549H96V308.964H158.875V365.452H96V374.866H164.115C165.504 374.866 166.837 374.37 167.82 373.488C168.802 372.605 169.354 371.407 169.354 370.159V368.364L208.473 382.957C229.799 390.779 253.638 391.016 275.151 383.619L356.091 355.891C358.464 355.081 360.633 353.853 362.471 352.28C364.308 350.707 365.777 348.819 366.792 346.729C367.842 344.609 368.41 342.322 368.463 340.002C368.516 337.682 368.053 335.376 367.1 333.219V333.219ZM357.206 342.928C356.747 343.878 356.083 344.736 355.25 345.452C354.418 346.168 353.435 346.727 352.359 347.097L271.417 374.824C252.396 381.367 231.316 381.162 212.457 374.251L169.354 358.169V313.671H182.635C200.01 313.69 217.143 317.323 232.692 324.287C237.827 326.587 243.484 327.787 249.222 327.793H289.865C291.92 327.796 293.891 328.521 295.357 329.814C296.823 331.108 297.667 332.865 297.708 334.711C297.748 336.556 296.982 338.342 295.574 339.687C294.166 341.031 292.228 341.826 290.175 341.901C289.964 341.906 289.754 341.915 289.542 341.915H226.99V351.33H289.542C289.65 351.33 289.757 351.323 289.865 351.323V351.33C290.231 351.33 290.593 351.317 290.953 351.298C294.849 351.152 298.684 350.375 302.272 349.004L346.074 332.293C347.108 331.896 348.221 331.69 349.346 331.689C350.47 331.687 351.584 331.89 352.62 332.284C353.696 332.691 354.669 333.288 355.482 334.041C356.294 334.794 356.929 335.687 357.348 336.665C357.79 337.665 358.005 338.734 357.98 339.809C357.956 340.884 357.692 341.944 357.206 342.927V342.928Z" fill="white"/>
<path d="M137.917 346.622H148.396V356.037H137.917V346.622Z" fill="white"/>
<path d="M221.75 210.11H232.23V271.305H221.75V210.11Z" fill="white"/>
</svg>
