<svg width="494" height="494" viewBox="0 0 494 494" fill="none" xmlns="http://www.w3.org/2000/svg">
<rect width="494" height="494" rx="90" fill="#A5167E"/>
<path d="M136.5 352C133.462 352 131 354.462 131 357.499V357.503C131 360.538 133.462 363 136.5 363C139.538 363 142 360.536 142 357.499C142 354.462 139.538 352 136.5 352V352Z" fill="white"/>
<path d="M379.609 109H336.477C333.499 109 331.086 111.412 331.086 114.389V120.014L323.892 119.969C323.881 119.969 323.868 119.969 323.858 119.969C320.897 119.969 318.485 122.359 318.467 125.322C318.448 128.299 320.846 130.728 323.824 130.747L331.086 130.791V186.701C316.969 195.588 304.228 190.471 290.779 185.057C281.916 181.489 272.749 177.801 263.602 178.948C260.717 179.31 252.929 180.441 244.686 181.636C236.875 182.769 228.796 183.941 226.018 184.291C224.605 184.468 223.196 184.074 222.051 183.184C220.882 182.272 220.136 180.965 219.955 179.5C219.837 178.546 219.523 176.01 226.28 172.875C240.582 166.246 255.823 160.571 268.097 157.306C270.974 156.54 272.686 153.589 271.919 150.711C271.155 147.836 268.202 146.126 265.323 146.891C252.472 150.309 236.586 156.218 221.743 163.099C216.579 165.493 213.405 168.278 211.535 171.086L157.482 185.819C151.796 187.248 148.879 184.985 148.043 182.39C147.221 179.834 148.213 176.54 152.28 174.936C156.511 173.326 166.61 168.882 179.389 163.261C196.326 155.812 217.401 146.539 234.207 139.725C254.178 131.627 260.264 130.406 280.712 130.48H280.729C283.698 130.48 286.11 128.078 286.12 125.108C286.129 122.131 283.721 119.71 280.743 119.702C258.933 119.628 251.366 121.138 230.155 129.739C213.201 136.612 192.046 145.918 175.046 153.395C162.88 158.748 152.371 163.371 148.416 164.874C148.399 164.88 148.382 164.887 148.365 164.893C138.292 168.842 135.415 178.344 137.778 185.689C140.105 192.926 148.108 199.319 160.178 196.256C160.209 196.247 160.239 196.241 160.27 196.231L209.617 182.781C210.493 186.305 212.51 189.419 215.427 191.688C218.849 194.351 223.089 195.521 227.362 194.984C230.243 194.622 238.01 193.494 246.234 192.303C254.066 191.166 262.162 189.991 264.946 189.642C271.317 188.842 278.814 191.858 286.75 195.054C295.159 198.439 304.739 202.297 315.107 202.295C320.255 202.295 325.598 201.335 331.086 198.902V200.611C331.086 203.588 333.499 206 336.477 206H379.609C382.587 206 385 203.588 385 200.611V114.389C385 111.412 382.587 109 379.609 109ZM374.217 195.222H341.869V125.476V125.472C341.869 125.472 341.869 125.468 341.869 125.466V119.778H374.217V195.222Z" fill="white"/>
<path d="M357.5 142C360.538 142 363 139.538 363 136.501V136.497C363 133.462 360.538 131 357.5 131C354.462 131 352 133.464 352 136.501C352 139.538 354.462 142 357.5 142Z" fill="white"/>
<path d="M209.5 285C222.213 285 233.463 278.549 240.247 268.714H260.039C261.46 268.714 262.822 268.142 263.827 267.124L272.972 257.857H279.25L288.394 267.124C289.399 268.142 290.761 268.714 292.182 268.714H300.571C301.992 268.714 303.355 268.142 304.359 267.124L320.431 250.838C321.435 249.82 322 248.44 322 247V230.714C322 227.718 319.602 225.286 316.643 225.286H240.249C233.463 215.451 222.215 209 209.5 209C188.823 209 172 226.047 172 247C172 267.953 188.823 285 209.5 285ZM311.286 236.143V244.752L298.353 257.857H294.402L285.255 248.59C284.251 247.573 282.889 247 281.468 247H270.753C269.333 247 267.97 247.573 266.966 248.59L257.821 257.857H245.433C246.448 254.416 247 250.772 247 247C247 243.228 246.448 239.584 245.433 236.143H311.286ZM209.5 219.857C224.27 219.857 236.286 232.033 236.286 247C236.286 261.967 224.27 274.143 209.5 274.143C194.73 274.143 182.714 261.967 182.714 247C182.714 232.033 194.73 219.857 209.5 219.857Z" fill="white"/>
<path d="M198.5 252C201.538 252 204 249.76 204 246.999C204 244.238 201.538 242 198.5 242C195.462 242 193 244.238 193 246.999V247.003C193 249.764 195.462 252 198.5 252Z" fill="white"/>
<path d="M302.5 131H302.502C305.54 131 308 128.536 308 125.5C308 122.462 305.536 120 302.5 120C299.462 120 297 122.462 297 125.5C297 128.536 299.462 131 302.5 131Z" fill="white"/>
<path d="M333.822 297.742C333.791 297.751 333.761 297.757 333.73 297.768L284.383 311.217C283.507 307.693 281.49 304.58 278.573 302.31C275.151 299.647 270.911 298.477 266.638 299.014C263.757 299.376 255.99 300.504 247.766 301.696C239.934 302.832 231.838 304.007 229.054 304.356C222.685 305.154 215.186 302.14 207.25 298.944C194.665 293.879 179.453 287.758 162.914 295.09V293.389C162.914 290.412 160.501 288 157.523 288H114.391C111.414 288 109 290.412 109 293.389V379.611C109 382.588 111.414 385 114.391 385H157.523C160.501 385 162.914 382.588 162.914 379.611V373.986L170.108 374.03H170.142C173.103 374.03 175.515 371.641 175.534 368.675C175.552 365.701 173.154 363.271 170.176 363.252L162.914 363.208V307.297C177.031 298.41 189.772 303.527 203.221 308.939C212.086 312.509 221.255 316.198 230.398 315.048C233.285 314.686 241.071 313.558 249.314 312.362C257.125 311.227 265.204 310.057 267.982 309.708C269.395 309.531 270.804 309.922 271.949 310.815C273.12 311.726 273.864 313.034 274.045 314.499C274.163 315.452 274.479 317.989 267.72 321.121C253.418 327.752 238.179 333.428 225.905 336.693C223.029 337.459 221.316 340.41 222.081 343.286C222.847 346.163 225.802 347.871 228.677 347.109C241.528 343.69 257.414 337.781 272.259 330.899C277.421 328.506 280.595 325.721 282.467 322.913L336.518 308.179C342.202 306.748 345.121 309.013 345.957 311.608C346.779 314.164 345.787 317.458 341.722 319.063C337.493 320.673 327.39 325.117 314.609 330.739C297.674 338.189 276.599 347.46 259.793 354.274C239.822 362.372 233.723 363.598 213.288 363.52C213.284 363.52 213.278 363.52 213.271 363.52C210.302 363.52 207.89 365.922 207.88 368.892C207.871 371.869 210.279 374.289 213.257 374.298C213.697 374.3 214.131 374.3 214.56 374.3C235.38 374.3 243.063 372.689 263.845 364.261C280.797 357.388 301.954 348.081 318.952 340.604C331.12 335.251 341.629 330.628 345.582 329.125C345.599 329.119 345.616 329.112 345.635 329.106C355.708 325.157 358.585 315.654 356.222 308.31C353.895 301.075 345.892 294.682 333.822 297.742V297.742ZM119.783 374.222V298.776H152.131V368.53V368.536V374.222H119.783Z" fill="white"/>
<path d="M191.501 363H191.497C188.459 363 186 365.464 186 368.5C186 371.538 188.464 374 191.501 374C194.538 374 197 371.538 197 368.5C197 365.464 194.538 363 191.501 363Z" fill="white"/>
</svg>
