<svg width="494" height="494" viewBox="0 0 494 494" fill="none" xmlns="http://www.w3.org/2000/svg">
<rect x="7" y="7" width="480" height="480" rx="83" stroke="url(#paint0_linear)" stroke-width="14"/>
<g clip-path="url(#clip0)">
<path d="M372.219 106.002H121.788C120.608 105.954 119.459 106.424 118.61 107.303C117.759 108.182 117.279 109.394 117.281 110.659V327.846C117.25 330.562 119.254 332.804 121.788 332.885H207.524L199.441 359.111H178.501C175.988 359.111 174.176 361.355 174.176 364.052V384.343C174.134 385.589 174.574 386.797 175.394 387.678C176.214 388.56 177.339 389.039 178.501 388.996H315.506C316.668 389.039 317.793 388.56 318.613 387.678C319.433 386.795 319.873 385.587 319.828 384.341V364.052C319.828 361.357 318.022 359.111 315.506 359.111H294.561L286.478 332.885H372.219C374.752 332.804 376.757 330.56 376.724 327.844V110.659C376.726 109.394 376.248 108.182 375.397 107.303C374.546 106.424 373.399 105.954 372.219 106.002V106.002ZM310.725 368.869V379.238H183.279V368.869H310.725ZM209.022 359.111L217.106 332.885H276.901L284.984 359.111H209.022ZM367.62 323.127H126.384V291.412H367.62V323.127ZM367.62 281.653H126.384V115.76H367.62V281.653Z" fill="white"/>
<path d="M184.451 217.826L194.75 218.898C195.925 223.392 197.614 227.711 199.779 231.759L193.214 240.235C191.712 242.175 191.834 245.022 193.498 246.804L206.38 260.586C208.042 262.366 210.691 262.497 212.501 260.891L220.433 253.837C224.215 256.15 228.242 257.972 232.427 259.264L233.425 270.428C233.643 272.951 235.594 274.897 237.957 274.945H256.208C258.572 274.897 260.522 272.951 260.739 270.428L261.739 259.321C265.938 258.046 269.976 256.219 273.756 253.884L281.666 260.898C283.475 262.501 286.127 262.368 287.787 260.588L300.671 246.801C302.337 245.019 302.462 242.172 300.959 240.231L294.392 231.74C296.548 227.689 298.248 223.377 299.455 218.898L309.563 217.826C311.874 217.571 313.616 215.46 313.57 212.971V193.43C313.616 190.938 311.87 188.825 309.556 188.572L299.262 187.5C298.084 183.009 296.392 178.69 294.225 174.642L300.793 166.168C302.289 164.238 302.175 161.406 300.531 159.621L287.805 145.839C286.144 144.043 283.482 143.902 281.666 145.515L273.734 152.567C269.952 150.251 265.924 148.429 261.739 147.137L260.742 136.054C260.517 133.548 258.557 131.63 256.208 131.618H237.957C235.608 131.632 233.65 133.548 233.425 136.054L232.427 147.121C228.229 148.388 224.191 150.208 220.408 152.538L212.501 145.51C210.691 143.904 208.042 144.035 206.38 145.815L193.494 159.597C191.829 161.379 191.705 164.226 193.205 166.166L199.777 174.661C197.619 178.709 195.921 183.019 194.716 187.498L184.455 188.572C182.139 188.823 180.39 190.936 180.435 193.43V212.971C180.39 215.463 182.137 217.576 184.451 217.826V217.826ZM189.538 197.862L198.87 196.885C200.819 196.677 202.419 195.141 202.826 193.087C204.022 187.322 206.178 181.835 209.189 176.891C210.274 175.097 210.145 172.758 208.867 171.114L202.868 163.369L209.88 155.864L217.114 162.294C218.657 163.667 220.857 163.793 222.528 162.609C227.113 159.352 232.227 157.046 237.606 155.812C239.546 155.354 240.99 153.606 241.179 151.485L242.086 141.377H252.076L252.987 151.483C253.178 153.603 254.628 155.35 256.572 155.797C261.955 157.077 267.078 159.392 271.692 162.633C273.359 163.781 275.528 163.643 277.057 162.287L284.269 155.876L291.165 163.343L285.155 171.112C283.873 172.772 283.758 175.136 284.871 176.93C287.914 181.835 290.072 187.307 291.232 193.066C291.607 195.122 293.196 196.673 295.143 196.882L304.467 197.862V208.544L295.292 209.521C293.345 209.728 291.747 211.265 291.341 213.319C290.145 219.082 287.989 224.566 284.975 229.507C283.893 231.301 284.022 233.643 285.3 235.285L291.298 243.035L284.284 250.539L277.052 244.109C275.508 242.737 273.31 242.611 271.636 243.795C267.051 247.051 261.937 249.358 256.559 250.592C254.61 251.085 253.172 252.86 252.987 254.999L252.076 265.184H242.086L241.177 254.999C240.988 252.867 239.541 251.109 237.592 250.644C232.207 249.355 227.084 247.032 222.473 243.788C220.808 242.634 218.637 242.77 217.108 244.123L209.874 250.549L202.859 243.042L208.851 235.292C210.134 233.631 210.249 231.268 209.136 229.474C206.093 224.569 203.937 219.096 202.775 213.338C202.399 211.279 200.81 209.728 198.866 209.519L189.533 208.544L189.538 197.862Z" fill="white"/>
<path d="M247.016 240.645C266.304 240.621 281.924 223.844 281.906 203.167C281.891 182.493 266.247 165.742 246.96 165.749C227.671 165.758 212.041 182.521 212.041 203.198C212.072 223.885 227.72 240.638 247.016 240.645ZM247.016 175.512C261.277 175.538 272.821 187.946 272.803 203.234C272.787 218.52 261.219 230.901 246.96 230.892C232.698 230.884 221.144 218.489 221.144 203.203C221.17 187.905 232.745 175.517 247.016 175.512Z" fill="white"/>
</g>
<defs>
<linearGradient id="paint0_linear" x1="247" y1="0" x2="247" y2="494" gradientUnits="userSpaceOnUse">
<stop stop-color="#272B53"/>
<stop offset="1" stop-color="#A5167E"/>
</linearGradient>
<clipPath id="clip0">
<rect width="264" height="283" fill="white" transform="translate(115 106)"/>
</clipPath>
</defs>
</svg>
