<svg width="494" height="494" viewBox="0 0 494 494" fill="none" xmlns="http://www.w3.org/2000/svg">
<rect width="494" height="494" rx="90" fill="#A5167E"/>
<path d="M376.934 168.443L248.441 106.412C247.302 105.863 245.975 105.863 244.837 106.412L116.343 168.443C114.91 169.135 114 170.586 114 172.176V322.823C114 324.414 114.91 325.865 116.343 326.557L244.836 388.588C245.405 388.862 246.022 389 246.638 389C247.255 389 247.871 388.862 248.441 388.588L376.934 326.557C378.367 325.865 379.277 324.414 379.277 322.823V172.177C379.277 170.585 378.366 169.135 376.934 168.443ZM246.638 114.749L365.596 172.176L331.113 188.824C330.894 188.657 330.664 188.504 330.411 188.381L212.261 131.345L246.638 114.749ZM202.899 136.032L321.684 193.376L297.355 205.121L178.62 147.8L202.899 136.032ZM324.463 201.24V244.655L301.738 255.626V212.211L324.463 201.24ZM370.986 320.222L250.784 378.249V236.809L279.456 222.968C281.518 221.972 282.382 219.494 281.387 217.432C280.391 215.371 277.913 214.505 275.851 215.501L246.638 229.604L235.144 224.055C233.082 223.058 230.604 223.924 229.608 225.986C228.613 228.047 229.477 230.526 231.539 231.521L242.493 236.809V378.249L122.291 320.221V178.781L213.824 222.969C214.405 223.25 215.019 223.383 215.623 223.383C217.164 223.383 218.644 222.519 219.359 221.039C220.354 218.977 219.49 216.498 217.428 215.503L127.681 172.176L168.862 152.296L293.39 212.413C293.408 212.438 293.428 212.461 293.447 212.486V262.231C293.447 263.658 294.181 264.984 295.389 265.743C296.06 266.164 296.826 266.377 297.593 266.377C298.208 266.377 298.824 266.24 299.395 265.964L330.411 250.991C331.843 250.3 332.754 248.849 332.754 247.258V197.238L370.986 178.782V320.222V320.222Z" fill="white"/>
<path d="M156.502 304.144L137.645 295.041C135.583 294.044 133.105 294.91 132.11 296.971C131.114 299.033 131.979 301.512 134.04 302.507L152.897 311.61C153.478 311.891 154.092 312.024 154.696 312.024C156.237 312.024 157.717 311.16 158.432 309.679C159.428 307.617 158.564 305.14 156.502 304.144Z" fill="white"/>
<path d="M173.856 292.848L137.671 275.379C135.609 274.383 133.131 275.248 132.136 277.31C131.141 279.372 132.005 281.85 134.067 282.846L170.252 300.314C170.833 300.595 171.447 300.728 172.051 300.728C173.592 300.728 175.072 299.865 175.787 298.384C176.782 296.321 175.918 293.842 173.856 292.848Z" fill="white"/>
</svg>
