<svg width="494" height="494" viewBox="0 0 494 494" fill="none" xmlns="http://www.w3.org/2000/svg">
<rect x="7" y="7" width="480" height="480" rx="83" stroke="url(#paint0_linear)" stroke-width="14"/>
<path d="M373.844 111.665H120.156C117.308 111.665 115 114.14 115 117.192V174.046C115 177.098 117.308 179.573 120.156 179.573H373.844C376.692 179.573 379 177.098 379 174.046V117.192C379 114.14 376.692 111.665 373.844 111.665ZM368.688 168.518H125.312V122.72H368.688V168.518Z" fill="white"/>
<path d="M357.039 155.964L352.828 151.449C353.977 149.013 354.589 146.306 354.589 143.497C354.589 138.78 352.875 134.345 349.764 131.01C343.342 124.126 332.891 124.125 326.468 131.01C323.357 134.345 321.644 138.78 321.644 143.497C321.644 148.213 323.358 152.648 326.468 155.983C329.58 159.318 333.717 161.155 338.117 161.155C340.738 161.155 343.263 160.498 345.536 159.267L349.747 163.781C350.754 164.86 352.073 165.4 353.393 165.4C354.712 165.4 356.032 164.86 357.039 163.781C359.052 161.622 359.052 158.123 357.039 155.964ZM342.473 148.166C341.31 149.413 339.763 150.1 338.117 150.1C336.471 150.1 334.925 149.413 333.761 148.166C332.598 146.918 331.956 145.261 331.956 143.497C331.956 141.733 332.598 140.074 333.761 138.827C334.962 137.54 336.54 136.897 338.117 136.897C339.694 136.897 341.272 137.54 342.473 138.827C343.636 140.075 344.277 141.733 344.277 143.497C344.277 145.261 343.637 146.919 342.473 148.166Z" fill="white"/>
<path d="M299.769 154.547C299.702 154.193 299.604 153.845 299.475 153.513C299.346 153.181 299.186 152.856 299.001 152.557C298.815 152.259 298.598 151.971 298.361 151.717C298.124 151.463 297.861 151.231 297.577 151.032C297.299 150.833 297 150.661 296.685 150.523C296.376 150.385 296.051 150.28 295.721 150.208C295.056 150.064 294.37 150.064 293.705 150.208C293.375 150.28 293.05 150.385 292.741 150.523C292.431 150.661 292.132 150.833 291.854 151.032C291.57 151.231 291.307 151.463 291.065 151.717C290.828 151.971 290.616 152.258 290.426 152.557C290.24 152.856 290.08 153.182 289.951 153.513C289.822 153.845 289.724 154.193 289.657 154.547C289.59 154.906 289.559 155.266 289.559 155.63C289.559 155.989 289.59 156.349 289.657 156.708C289.724 157.062 289.822 157.41 289.951 157.741C290.08 158.074 290.24 158.394 290.426 158.698C290.616 158.996 290.828 159.283 291.065 159.538C291.307 159.792 291.57 160.025 291.854 160.223C292.132 160.422 292.431 160.593 292.741 160.732C293.055 160.87 293.38 160.975 293.705 161.047C294.04 161.119 294.381 161.152 294.716 161.152C295.051 161.152 295.391 161.118 295.721 161.047C296.051 160.975 296.376 160.87 296.685 160.732C296.995 160.593 297.299 160.422 297.577 160.223C297.861 160.025 298.124 159.792 298.361 159.538C299.32 158.505 299.872 157.084 299.872 155.63C299.872 155.266 299.836 154.906 299.769 154.547Z" fill="white"/>
<path d="M275.166 150.1H168.003C165.155 150.1 162.847 152.575 162.847 155.628C162.847 158.68 165.155 161.155 168.003 161.155H275.166C278.014 161.155 280.323 158.68 280.323 155.628C280.323 152.575 278.014 150.1 275.166 150.1Z" fill="white"/>
<path d="M277.329 187.453H120.765C117.917 187.453 115.609 189.928 115.609 192.98V301.978C115.609 305.031 117.917 307.506 120.765 307.506H277.329C280.177 307.506 282.485 305.031 282.485 301.978V192.98C282.485 189.928 280.177 187.453 277.329 187.453ZM177.806 296.451H134.039L163.515 259.867L184.862 286.365L177.806 296.451ZM190.697 296.451L200.311 282.709H225.313C228.161 282.709 230.469 280.234 230.469 277.182C230.469 274.13 228.161 271.654 225.313 271.654H208.046L211.663 266.484H244.039L265.007 296.451H190.697ZM219.397 255.43L227.851 243.347L236.304 255.43H219.397ZM272.173 288.269L231.976 230.818C231.002 229.426 229.474 228.607 227.851 228.607C226.228 228.607 224.7 229.426 223.726 230.818L191.195 277.313L167.418 247.797C166.439 246.582 165.014 245.883 163.516 245.883C162.017 245.883 160.593 246.582 159.613 247.797L125.921 289.613V198.508H272.173V288.269Z" fill="white"/>
<path d="M185.974 204.854C175.923 204.854 167.746 213.62 167.746 224.395C167.746 235.17 175.923 243.935 185.974 243.935C196.026 243.935 204.203 235.17 204.203 224.395C204.203 213.62 196.026 204.854 185.974 204.854ZM185.974 232.881C181.609 232.881 178.058 229.075 178.058 224.395C178.058 219.716 181.61 215.909 185.974 215.909C190.339 215.909 193.891 219.716 193.891 224.395C193.891 229.075 190.34 232.881 185.974 232.881Z" fill="white"/>
<path d="M373.844 187.453H294.598C291.75 187.453 289.441 189.928 289.441 192.98V301.978C289.441 305.031 291.75 307.506 294.598 307.506H373.844C376.692 307.506 379 305.031 379 301.978V192.98C379 189.928 376.692 187.453 373.844 187.453ZM368.688 296.451H299.754V198.508H368.688V296.451Z" fill="white"/>
<path d="M356.682 207.612H311.759C308.911 207.612 306.603 210.087 306.603 213.139C306.603 216.191 308.911 218.666 311.759 218.666H356.682C359.53 218.666 361.838 216.191 361.838 213.139C361.838 210.087 359.53 207.612 356.682 207.612Z" fill="white"/>
<path d="M356.682 229.795H311.759C308.911 229.795 306.603 232.27 306.603 235.322C306.603 238.374 308.911 240.85 311.759 240.85H356.682C359.53 240.85 361.838 238.374 361.838 235.322C361.838 232.27 359.53 229.795 356.682 229.795Z" fill="white"/>
<path d="M356.682 251.978H311.759C308.911 251.978 306.603 254.453 306.603 257.506C306.603 260.558 308.911 263.033 311.759 263.033H356.682C359.53 263.033 361.838 260.558 361.838 257.506C361.838 254.453 359.53 251.978 356.682 251.978Z" fill="white"/>
<path d="M316.815 278.608C316.748 278.254 316.65 277.905 316.521 277.574C316.393 277.242 316.233 276.921 316.047 276.618C315.856 276.319 315.645 276.032 315.403 275.778C314.206 274.495 312.427 273.904 310.752 274.269C310.422 274.341 310.097 274.446 309.787 274.584C309.478 274.722 309.179 274.893 308.895 275.092C308.617 275.291 308.349 275.524 308.112 275.778C307.874 276.032 307.658 276.319 307.472 276.618C307.287 276.922 307.127 277.243 306.998 277.574C306.869 277.906 306.771 278.254 306.704 278.608C306.637 278.967 306.601 279.326 306.601 279.685C306.601 280.05 306.637 280.41 306.704 280.768C306.771 281.123 306.869 281.471 306.998 281.803C307.127 282.135 307.287 282.455 307.472 282.759C307.658 283.057 307.874 283.345 308.112 283.599C308.349 283.853 308.617 284.085 308.895 284.284C309.179 284.483 309.478 284.655 309.787 284.793C310.097 284.931 310.422 285.036 310.752 285.108C311.087 285.18 311.422 285.218 311.762 285.218C313.118 285.218 314.443 284.627 315.403 283.598C315.64 283.344 315.856 283.057 316.047 282.758C316.233 282.454 316.393 282.134 316.521 281.802C316.65 281.47 316.748 281.123 316.815 280.768C316.882 280.41 316.913 280.05 316.913 279.685C316.913 279.326 316.882 278.967 316.815 278.608Z" fill="white"/>
<path d="M356.682 274.161H331.306C328.459 274.161 326.15 276.636 326.15 279.688C326.15 282.741 328.459 285.216 331.306 285.216H356.682C359.53 285.216 361.838 282.741 361.838 279.688C361.838 276.636 359.53 274.161 356.682 274.161Z" fill="white"/>
<path d="M200.011 315.348H120.765C117.917 315.348 115.609 317.823 115.609 320.875V377.808C115.609 380.86 117.917 383.335 120.765 383.335H200.011C202.859 383.335 205.168 380.86 205.168 377.808V320.875C205.168 317.823 202.859 315.348 200.011 315.348ZM194.855 372.28H125.921V326.403H194.855V372.28Z" fill="white"/>
<path d="M373.844 315.348H217.984C215.137 315.348 212.828 317.823 212.828 320.875V377.808C212.828 380.86 215.137 383.335 217.984 383.335H373.844C376.692 383.335 379 380.86 379 377.808V320.875C379 317.823 376.692 315.348 373.844 315.348ZM368.688 372.28H223.141V326.403H368.688V372.28Z" fill="white"/>
<path d="M246.629 348.264C246.562 347.91 246.464 347.562 246.335 347.23C246.206 346.893 246.046 346.573 245.86 346.274C245.675 345.97 245.458 345.688 245.221 345.434C244.984 345.179 244.721 344.947 244.437 344.748C244.159 344.55 243.86 344.378 243.545 344.24C243.236 344.102 242.911 343.991 242.581 343.919C241.916 343.781 241.23 343.781 240.565 343.919C240.24 343.991 239.915 344.102 239.601 344.24C239.291 344.378 238.992 344.55 238.714 344.748C238.43 344.947 238.167 345.179 237.93 345.434C237.693 345.688 237.476 345.97 237.286 346.274C237.1 346.573 236.94 346.893 236.811 347.23C236.682 347.562 236.584 347.91 236.517 348.264C236.45 348.617 236.419 348.982 236.419 349.342C236.419 349.7 236.45 350.066 236.517 350.419C236.584 350.773 236.682 351.121 236.811 351.458C236.94 351.79 237.1 352.11 237.286 352.409C237.476 352.713 237.693 352.995 237.93 353.249C238.889 354.277 240.22 354.869 241.576 354.869C241.911 354.869 242.251 354.835 242.581 354.764C242.911 354.692 243.236 354.581 243.545 354.443C243.86 354.305 244.159 354.139 244.437 353.935C244.721 353.736 244.984 353.504 245.221 353.249C245.458 352.995 245.675 352.713 245.86 352.409C246.046 352.111 246.206 351.79 246.335 351.458C246.464 351.121 246.562 350.773 246.629 350.419C246.696 350.065 246.732 349.7 246.732 349.342C246.732 348.982 246.696 348.617 246.629 348.264Z" fill="white"/>
<path d="M347.71 343.814H261.122C258.274 343.814 255.966 346.289 255.966 349.342C255.966 352.394 258.274 354.869 261.122 354.869H347.71C350.558 354.869 352.867 352.394 352.867 349.342C352.867 346.289 350.558 343.814 347.71 343.814Z" fill="white"/>
<defs>
<linearGradient id="paint0_linear" x1="247" y1="0" x2="247" y2="494" gradientUnits="userSpaceOnUse">
<stop stop-color="#272B53"/>
<stop offset="1" stop-color="#A5167E"/>
</linearGradient>
</defs>
</svg>
