<svg width="2460" height="749" viewBox="0 0 2460 749" fill="none" xmlns="http://www.w3.org/2000/svg">
<path d="M1139.22 6.4375V338.644H1057.14V87.8795L1139.22 6.4375Z" fill="#A5167E"/>
<path d="M1320.46 338.643C1297.6 338.643 1276.03 334.137 1255.75 325.445C1235.79 316.754 1218.09 304.843 1202.96 289.714C1187.83 274.584 1175.92 257.201 1167.23 236.921C1158.54 216.963 1154.03 195.395 1154.03 172.218C1154.03 149.363 1158.54 127.473 1167.23 107.193C1175.92 86.9134 1187.83 69.2086 1202.96 54.079C1218.09 38.9495 1235.47 27.039 1255.75 18.3475C1275.71 9.65611 1297.28 5.14941 1320.46 5.14941C1342.99 5.14941 1364.23 9.33421 1384.51 17.7037C1404.79 26.0733 1422.82 38.3057 1438.59 54.079L1380.33 112.344C1372.28 104.296 1363.27 98.1801 1352.97 94.3172C1342.67 90.4543 1332.04 88.201 1320.46 88.201C1308.87 88.201 1298.24 90.4543 1287.94 94.961C1277.64 99.4677 1268.63 105.262 1261.23 112.666C1253.5 120.07 1247.71 129.083 1243.2 139.384C1238.69 149.685 1236.44 160.63 1236.44 172.218C1236.44 183.807 1238.69 194.752 1243.2 205.053C1247.71 215.354 1253.5 224.045 1261.23 231.771C1268.95 239.175 1277.64 245.291 1287.94 249.476C1298.24 253.982 1308.87 256.235 1320.46 256.235C1332.04 256.235 1342.67 253.982 1352.97 249.797C1363.27 245.613 1372.28 239.496 1380.33 231.449L1438.59 289.714C1422.82 305.487 1404.79 317.719 1384.51 326.089C1364.23 334.458 1342.67 338.643 1320.46 338.643Z" fill="#A5167E"/>
<path d="M1578.95 338.643C1556.09 338.643 1534.52 334.137 1514.24 325.445C1494.28 316.754 1476.58 304.843 1461.45 289.714C1446.32 274.584 1434.41 257.201 1425.72 236.921C1417.03 216.963 1412.52 195.396 1412.52 172.218C1412.52 149.685 1417.03 128.117 1425.72 107.837C1434.41 87.5573 1446.32 69.8525 1461.45 55.0448C1476.58 39.9153 1493.96 28.0048 1514.24 19.3134C1534.2 10.6219 1555.77 6.11523 1578.95 6.11523C1601.8 6.11523 1623.05 10.6219 1643.33 19.3134C1663.61 28.0048 1681.31 39.9153 1696.12 55.0448C1711.25 70.1744 1723.16 87.8792 1731.85 107.837C1740.54 128.117 1745.05 149.363 1745.05 172.218C1745.05 195.074 1740.54 216.641 1731.85 236.921C1723.16 256.879 1711.25 274.584 1696.12 289.714C1680.99 304.843 1663.28 316.754 1643.33 325.445C1623.05 334.459 1601.8 338.643 1578.95 338.643ZM1578.95 89.4887C1567.36 89.4887 1556.41 91.742 1546.11 96.2487C1535.81 100.755 1527.12 106.55 1519.39 113.953C1511.67 121.357 1505.87 130.371 1501.69 140.35C1497.18 150.329 1494.93 161.274 1494.93 172.54C1494.93 184.129 1497.18 195.074 1501.69 205.375C1506.19 215.676 1511.99 224.367 1519.39 232.093C1526.8 239.497 1535.81 245.613 1546.11 249.798C1556.41 254.304 1567.36 256.558 1578.95 256.558C1590.21 256.558 1601.16 254.304 1611.14 249.798C1621.12 245.291 1630.13 239.497 1637.53 232.093C1644.94 224.689 1651.05 215.676 1655.24 205.375C1659.74 195.074 1662 184.129 1662 172.54C1662 161.274 1659.74 150.329 1655.24 140.35C1650.73 130.371 1644.94 121.357 1637.53 113.953C1630.13 106.55 1621.12 100.433 1611.14 96.2487C1601.16 91.742 1590.53 89.4887 1578.95 89.4887Z" fill="#A5167E"/>
<path d="M2063.74 338.644H1982.29V159.986C1982.29 150.007 1980.36 140.672 1976.82 131.981C1972.96 123.289 1967.81 115.885 1961.37 109.447C1954.93 103.009 1947.21 98.1805 1938.51 94.3176C1929.82 90.4548 1920.49 88.8452 1910.83 88.8452C1900.85 88.8452 1891.52 90.7767 1882.82 94.3176C1874.13 98.1805 1866.41 103.009 1859.65 109.447C1852.89 115.885 1847.74 123.289 1844.2 131.981C1840.33 140.672 1838.72 150.007 1838.72 159.986V338.644H1757.28V159.986C1757.28 139.062 1761.14 119.104 1769.19 100.434C1777.24 81.7633 1788.18 65.3462 1802.35 51.5042C1816.19 37.6623 1832.61 26.3956 1851.28 18.348C1869.95 10.3004 1889.91 6.4375 1911.15 6.4375C1932.08 6.4375 1952.03 10.3004 1970.7 18.348C1989.37 26.3956 2005.47 37.3404 2019.31 51.5042C2033.15 65.3462 2043.78 81.7633 2051.82 100.434C2059.87 119.104 2063.74 139.062 2063.74 159.986V338.644Z" fill="#A5167E"/>
<path d="M2160.63 6.4375V338.644H2078.54V87.8795L2160.63 6.4375Z" fill="#A5167E"/>
<path d="M2341.86 338.643C2319.01 338.643 2297.44 334.137 2277.16 325.445C2257.2 316.754 2239.49 304.843 2224.37 289.714C2209.24 274.584 2197.33 257.201 2188.63 236.921C2179.94 216.963 2175.44 195.395 2175.44 172.218C2175.44 149.363 2179.94 127.473 2188.63 107.193C2197.33 86.9134 2209.24 69.2086 2224.37 54.079C2239.49 38.9495 2256.88 27.039 2277.16 18.3475C2297.12 9.65611 2318.68 5.14941 2341.86 5.14941C2364.39 5.14941 2385.64 9.33421 2405.92 17.7037C2426.2 26.0733 2444.23 38.3057 2460 54.079L2401.73 112.988C2393.69 104.94 2384.67 98.8239 2374.37 94.961C2364.07 91.0981 2353.45 88.8448 2341.86 88.8448C2330.59 88.8448 2319.65 91.0981 2309.35 95.6048C2299.05 100.111 2290.03 105.906 2282.63 113.31C2274.9 120.713 2269.11 129.727 2264.6 140.028C2260.1 150.329 2257.84 161.273 2257.84 172.862C2257.84 184.451 2260.1 195.395 2264.6 205.696C2269.11 215.997 2274.9 224.689 2282.63 232.415C2290.36 239.818 2299.05 245.935 2309.35 250.119C2319.65 254.626 2330.27 256.879 2341.86 256.879C2353.13 256.879 2364.07 254.626 2374.37 250.441C2384.67 246.256 2393.69 240.14 2401.73 232.093L2460 290.357C2444.23 306.131 2426.2 318.363 2405.92 326.733C2385.64 334.458 2364.07 338.643 2341.86 338.643Z" fill="#A5167E"/>
<path d="M1140.83 371.801V572.026C1140.83 594.881 1136.33 616.449 1127.63 636.729C1118.94 656.687 1107.03 674.392 1092.22 689.199C1077.42 704.007 1059.71 715.917 1039.43 724.609C1019.15 733.3 997.585 737.485 974.729 737.485C951.874 737.485 930.306 733.3 910.026 724.609C890.068 715.917 872.363 704.329 857.556 689.199C842.748 674.392 830.838 656.687 822.146 636.729C813.455 616.771 809.27 595.203 809.27 572.026C809.27 549.493 813.455 527.925 822.146 507.645C830.838 487.365 842.426 469.66 857.556 454.852C872.363 439.723 890.068 427.812 910.026 419.121C929.985 410.429 951.552 405.923 974.729 405.923L1057.78 488.009H974.729C963.463 488.009 952.518 490.262 942.539 494.769C932.56 499.275 923.546 505.07 916.143 512.473C908.739 519.877 902.623 528.891 898.438 539.191C893.931 549.492 891.678 560.437 891.678 572.026C891.678 583.293 893.931 594.237 898.438 604.216C902.944 614.195 908.739 623.209 916.143 630.613C923.546 638.016 932.238 644.133 942.539 648.317C952.518 652.824 963.463 655.077 974.729 655.077C986.318 655.077 997.263 652.824 1007.56 648.317C1017.86 643.811 1026.56 638.016 1034.28 630.613C1041.69 623.209 1047.8 614.517 1051.99 604.216C1056.49 594.237 1058.75 583.293 1058.75 572.026V371.801H1140.83Z" fill="#21254F"/>
<path d="M1258.65 528.89H1391.6C1384.51 516.014 1374.21 505.391 1361.34 497.665C1348.46 489.939 1334.3 485.755 1318.2 485.755C1306.61 485.755 1295.67 488.008 1285.37 492.515C1275.07 497.021 1266.05 503.138 1258.33 510.863C1250.6 518.589 1244.49 527.602 1239.98 537.903C1235.47 548.204 1233.22 559.149 1233.22 570.738C1233.22 582.326 1235.47 593.271 1239.98 603.572C1244.49 613.873 1250.6 622.886 1258.33 630.612C1266.05 638.338 1275.07 644.454 1285.37 648.961C1295.67 653.467 1306.61 655.721 1318.2 655.721H1446.96L1363.91 737.807H1318.2C1295.35 737.807 1273.46 733.3 1253.18 724.608C1232.9 715.917 1215.19 704.006 1200.06 688.877C1184.93 673.747 1173.02 656.043 1164.33 635.763C1155.64 615.483 1151.13 593.915 1151.13 570.738C1151.13 547.882 1155.64 525.993 1164.33 505.713C1173.02 485.433 1184.93 467.728 1200.06 452.598C1215.19 437.469 1232.9 425.558 1253.18 416.867C1273.46 408.176 1295.02 403.669 1318.2 403.669C1341.06 403.669 1362.95 408.176 1383.23 416.867C1403.51 425.558 1421.21 437.469 1436.34 452.598C1451.47 467.728 1463.38 485.433 1472.07 505.713C1480.76 525.993 1485.27 547.882 1485.27 570.738V611.298H1341.7L1258.65 528.89Z" fill="#21254F"/>
<path d="M1783.03 405.278L1600.19 737.484L1465.63 468.372L1527.12 406.888L1603.41 559.793L1688.07 405.278H1783.03Z" fill="#21254F"/>
<path d="M79.5106 141.316L79.8325 652.824L0 606.791V187.027L79.5106 141.316Z" fill="url(#paint0_linear)"/>
<path d="M245.614 136.488V201.191V748.43L162.562 700.466V93.3525L323.837 0L647.995 187.027V561.403L323.837 748.43V653.789L566.553 513.761V232.416L323.193 91.743L245.614 136.488Z" fill="url(#paint1_linear)"/>
<defs>
<linearGradient id="paint0_linear" x1="-3.64206e-06" y1="141" x2="80" y2="653" gradientUnits="userSpaceOnUse">
<stop offset="0.765625" stop-color="#A5167E"/>
<stop offset="1" stop-color="#21254F"/>
</linearGradient>
<linearGradient id="paint1_linear" x1="310.781" y1="241.911" x2="486.003" y2="513.325" gradientUnits="userSpaceOnUse">
<stop stop-color="#A5167E"/>
<stop offset="1" stop-color="#21254F"/>
</linearGradient>
</defs>
</svg>
